<?xml version="1.0" encoding="UTF-8" standalone="no"?>
<!DOCTYPE svg PUBLIC "-//W3C//DTD SVG 1.1//EN" "http://www.w3.org/Graphics/SVG/1.1/DTD/svg11.dtd">
<svg width="100%" height="100%" viewBox="0 0 2048 2048" version="1.1" xmlns="http://www.w3.org/2000/svg" xmlns:xlink="http://www.w3.org/1999/xlink" xml:space="preserve" xmlns:serif="http://www.serif.com/" style="fill-rule:evenodd;clip-rule:evenodd;stroke-linejoin:round;stroke-miterlimit:2;">
    <g transform="matrix(3.49196,0,0,8.06552,-1212.61,-4697)">
        <path d="M933.748,645.835C933.748,610.8 868.049,582.355 787.125,582.355L493.88,582.355C412.957,582.355 347.257,610.8 347.257,645.835L347.257,772.795C347.257,807.831 412.957,836.275 493.88,836.275L787.125,836.275C868.049,836.275 933.748,807.831 933.748,772.795L933.748,645.835Z" style="fill:url(#_Linear1);"/>
        <clipPath id="_clip2">
            <path d="M933.748,645.835C933.748,610.8 868.049,582.355 787.125,582.355L493.88,582.355C412.957,582.355 347.257,610.8 347.257,645.835L347.257,772.795C347.257,807.831 412.957,836.275 493.88,836.275L787.125,836.275C868.049,836.275 933.748,807.831 933.748,772.795L933.748,645.835Z"/>
        </clipPath>
        <g clip-path="url(#_clip2)">
            <g transform="matrix(-0.386684,-0.119327,-0.275616,0.167414,1344.52,629.236)">
                <path d="M1083.68,1114.83C1083.76,1114.78 1102.77,1147.37 1114.13,1158.73C1123.69,1168.29 1132.55,1163.97 1141.74,1173.55C1155.74,1188.14 1162.91,1259.25 1202.51,1279.23C1245.28,1300.8 1270.42,1271.61 1294.46,1244.25C1323.95,1210.69 1352.6,1240.05 1365.04,1265.22C1389.44,1314.6 1408.49,1362.2 1414.04,1417.63C1415.43,1431.62 1419.04,1525.58 1415.28,1529.34C1414.31,1530.32 1403.66,1478.61 1397.46,1468.27C1383.72,1445.37 1327.56,1356.75 1314.88,1358.85C1285.77,1363.66 1270.55,1384.58 1237.1,1402.19C1213.87,1414.41 1182.73,1410.12 1162.68,1417.17C1148.3,1422.22 1112.87,1505.98 1103.62,1654.13C1101.67,1685.31 1100.1,1753.55 1087.52,1763.22C1083.44,1706.5 1098.51,1638.45 1091.49,1608.31C1061.94,1654.56 1057.69,1774.02 1037.2,1801.99C1060.15,1622.7 1106.25,1479.55 1082.9,1421.99C1017.85,1427.05 947.655,1362.63 930.355,1378.66C899.126,1407.61 802.488,1457.88 725.439,1546.64C740.536,1458.6 833.175,1312.13 924.892,1256.19C988.125,1217.63 1000.76,1314.47 1064.52,1289.93C1098.47,1276.86 1091.18,1268.15 1094.93,1232.58C1097.53,1207.9 1100.48,1175.92 1095.55,1151.25C1093.69,1141.98 1083.68,1114.83 1083.68,1114.83Z" style="fill:white;"/>
            </g>
            <g transform="matrix(-0.275905,-0.0851418,-0.196656,0.119453,1319.9,657.957)">
                <path d="M1083.68,1114.83C1083.76,1114.78 1102.77,1147.37 1114.13,1158.73C1123.69,1168.29 1132.55,1163.97 1141.74,1173.55C1155.74,1188.14 1162.91,1259.25 1202.51,1279.23C1245.28,1300.8 1270.42,1271.61 1294.46,1244.25C1323.95,1210.69 1352.6,1240.05 1365.04,1265.22C1389.44,1314.6 1408.49,1362.2 1414.04,1417.63C1415.43,1431.62 1419.04,1525.58 1415.28,1529.34C1414.31,1530.32 1403.66,1478.61 1397.46,1468.27C1383.72,1445.37 1327.56,1356.75 1314.88,1358.85C1285.77,1363.66 1270.55,1384.58 1237.1,1402.19C1213.87,1414.41 1182.73,1410.12 1162.68,1417.17C1148.3,1422.22 1112.87,1505.98 1103.62,1654.13C1101.67,1685.31 1100.1,1753.55 1087.52,1763.22C1083.44,1706.5 1098.51,1638.45 1091.49,1608.31C1061.94,1654.56 1057.69,1774.02 1037.2,1801.99C1060.15,1622.7 1106.25,1479.55 1082.9,1421.99C1017.85,1427.05 947.655,1362.63 930.355,1378.66C899.126,1407.61 802.488,1457.88 725.439,1546.64C740.536,1458.6 833.175,1312.13 924.892,1256.19C988.125,1217.63 1000.76,1314.47 1064.52,1289.93C1098.47,1276.86 1091.18,1268.15 1094.93,1232.58C1097.53,1207.9 1100.48,1175.92 1095.55,1151.25C1093.69,1141.98 1083.68,1114.83 1083.68,1114.83Z" style="fill:white;"/>
            </g>
            <g transform="matrix(-0.207528,-0.0640414,-0.147919,0.0898491,1108.21,586.343)">
                <path d="M1083.68,1114.83C1083.76,1114.78 1102.77,1147.37 1114.13,1158.73C1123.69,1168.29 1132.55,1163.97 1141.74,1173.55C1155.74,1188.14 1162.91,1259.25 1202.51,1279.23C1245.28,1300.8 1270.42,1271.61 1294.46,1244.25C1323.95,1210.69 1352.6,1240.05 1365.04,1265.22C1389.44,1314.6 1408.49,1362.2 1414.04,1417.63C1415.43,1431.62 1419.04,1525.58 1415.28,1529.34C1414.31,1530.32 1403.66,1478.61 1397.46,1468.27C1383.72,1445.37 1327.56,1356.75 1314.88,1358.85C1285.77,1363.66 1270.55,1384.58 1237.1,1402.19C1213.87,1414.41 1182.73,1410.12 1162.68,1417.17C1148.3,1422.22 1112.87,1505.98 1103.62,1654.13C1101.67,1685.31 1100.1,1753.55 1087.52,1763.22C1083.44,1706.5 1098.51,1638.45 1091.49,1608.31C1061.94,1654.56 1057.69,1774.02 1037.2,1801.99C1060.15,1622.7 1106.25,1479.55 1082.9,1421.99C1017.85,1427.05 947.655,1362.63 930.355,1378.66C899.126,1407.61 802.488,1457.88 725.439,1546.64C740.536,1458.6 833.175,1312.13 924.892,1256.19C988.125,1217.63 1000.76,1314.47 1064.52,1289.93C1098.47,1276.86 1091.18,1268.15 1094.93,1232.58C1097.53,1207.9 1100.48,1175.92 1095.55,1151.25C1093.69,1141.98 1083.68,1114.83 1083.68,1114.83Z" style="fill:white;"/>
            </g>
        </g>
    </g>
    <defs>
        <linearGradient id="_Linear1" x1="0" y1="0" x2="1" y2="0" gradientUnits="userSpaceOnUse" gradientTransform="matrix(586.491,-253.92,586.491,253.92,347.257,836.275)"><stop offset="0" style="stop-color:rgb(8,0,174);stop-opacity:1"/><stop offset="1" style="stop-color:rgb(0,176,239);stop-opacity:1"/></linearGradient>
    </defs>
</svg>
